<svg width="48" height="48" viewBox="0 0 48 48" fill="none" xmlns="http://www.w3.org/2000/svg">
<path d="M19.9002 27.9051C19.9002 29.9421 18.4226 30.5859 16.6073 30.5859H11.8472V25.0027H16.7022C18.6654 25.0132 19.9002 25.8259 19.9002 27.9051ZM19.0875 19.2189C19.0875 17.3507 17.6416 16.9075 16.0373 16.9075H11.8578V21.6358H16.3645C17.9582 21.6358 19.0875 20.9392 19.0875 19.2189ZM33.051 21.6675C31.1195 21.6675 29.8319 22.8707 29.7052 24.8021H36.2701C36.0906 22.8496 35.0774 21.6675 33.051 21.6675ZM47.4999 5.42429V42.5757C47.4999 45.3726 45.2307 47.6418 42.4338 47.6418H5.28241C2.4855 47.6418 0.216309 45.3726 0.216309 42.5757V5.42429C0.216309 2.62738 2.4855 0.358185 5.28241 0.358185H42.4338C45.2307 0.358185 47.4999 2.62738 47.4999 5.42429ZM28.8926 16.5064H37.1039V14.5116H28.8926V16.5064ZM24.3542 28.1479C24.3542 25.6043 23.151 23.4089 20.6601 22.7018C22.4755 21.8363 23.4254 20.8337 23.4254 18.7967C23.4254 14.7649 20.4174 13.7834 16.945 13.7834H7.39329V34.0478H17.2194C20.9029 34.0267 24.3542 32.2641 24.3542 28.1479ZM40.3229 26.5858C40.3229 22.248 37.7793 18.6278 33.1882 18.6278C28.7131 18.6278 25.684 21.9841 25.684 26.3958C25.684 30.9659 28.5654 34.1005 33.1882 34.1005C36.6922 34.1005 38.9614 32.5279 40.0591 29.1611H36.5023C36.1118 30.4171 34.5392 31.0714 33.3148 31.0714C30.9507 31.0714 29.7158 29.6888 29.7158 27.3457H40.2913C40.3018 27.103 40.3229 26.8391 40.3229 26.5858Z" fill="#F5A524"/>
</svg>
