<svg width="48" height="48" viewBox="0 0 48 48" fill="none" xmlns="http://www.w3.org/2000/svg">
<path d="M42.583 0.358185H5.43158C4.08797 0.358185 2.79938 0.891934 1.84931 1.84201C0.899227 2.79209 0.365479 4.08067 0.365479 5.42429L0.365479 42.5757C0.365479 43.9193 0.899227 45.2079 1.84931 46.158C2.79938 47.1081 4.08797 47.6418 5.43158 47.6418H19.9175V31.5664H13.2682V24H19.9175V18.2331C19.9175 11.6735 23.8226 8.05022 29.8038 8.05022C32.6682 8.05022 35.6635 8.56105 35.6635 8.56105V14.9992H32.3632C29.1114 14.9992 28.0971 17.0172 28.0971 19.0869V24H35.3564L34.1954 31.5664H28.0971V47.6418H42.583C43.9266 47.6418 45.2152 47.1081 46.1653 46.158C47.1153 45.2079 47.6491 43.9193 47.6491 42.5757V5.42429C47.6491 4.08067 47.1153 2.79209 46.1653 1.84201C45.2152 0.891934 43.9266 0.358185 42.583 0.358185Z" fill="#F5A524"/>
</svg>
