<svg width="48" height="48" viewBox="0 0 48 48" fill="none" xmlns="http://www.w3.org/2000/svg">
<path d="M24.2909 18.3703C23.1775 18.3707 22.0893 18.7012 21.1637 19.3201C20.2382 19.9389 19.517 20.8183 19.0912 21.8471C18.6654 22.8758 18.5542 24.0077 18.7717 25.0996C18.9892 26.1915 19.5255 27.1944 20.3129 27.9815C21.1003 28.7687 22.1034 29.3046 23.1954 29.5217C24.2874 29.7387 25.4193 29.6271 26.4479 29.201C27.4764 28.7748 28.3555 28.0532 28.974 27.1275C29.5926 26.2017 29.9227 25.1134 29.9227 24C29.9216 22.5069 29.3278 21.0753 28.2718 20.0197C27.2158 18.9641 25.784 18.3708 24.2909 18.3703ZM37.4532 14.043C37.1666 13.3167 36.7338 12.657 36.1817 12.1049C35.6296 11.5528 34.9699 11.12 34.2436 10.8334C32.0272 9.95845 26.75 10.1548 24.2909 10.1548C21.8317 10.1548 16.5598 9.95106 14.337 10.8334C13.6107 11.12 12.951 11.5528 12.3989 12.1049C11.8468 12.657 11.414 13.3167 11.1274 14.043C10.2535 16.2594 10.4488 21.5419 10.4488 23.9989C10.4488 26.456 10.2535 31.7321 11.1317 33.9559C11.4183 34.6822 11.851 35.3419 12.4031 35.894C12.9553 36.4462 13.6149 36.8789 14.3412 37.1655C16.5577 38.0405 21.8349 37.8442 24.2951 37.8442C26.7553 37.8442 32.0251 38.0479 34.2479 37.1655C34.9742 36.8789 35.6338 36.4462 36.186 35.894C36.7381 35.3419 37.1708 34.6822 37.4574 33.9559C38.3387 31.7395 38.1361 26.4571 38.1361 24C38.1361 21.5429 38.3387 16.2679 37.4574 14.044L37.4532 14.043ZM24.2909 32.6546C22.5791 32.6546 20.9059 32.147 19.4826 31.196C18.0594 30.245 16.9501 28.8934 16.2951 27.312C15.64 25.7305 15.4686 23.9904 15.8026 22.3116C16.1365 20.6327 16.9608 19.0906 18.1711 17.8803C19.3815 16.6699 20.9236 15.8456 22.6024 15.5117C24.2813 15.1778 26.0214 15.3491 27.6028 16.0042C29.1842 16.6592 30.5359 17.7685 31.4869 19.1918C32.4379 20.615 32.9454 22.2883 32.9454 24C32.9468 25.1369 32.7239 26.263 32.2895 27.3136C31.855 28.3643 31.2176 29.3189 30.4137 30.1228C29.6097 30.9267 28.6551 31.5642 27.6045 31.9986C26.5538 32.4331 25.4278 32.656 24.2909 32.6546ZM33.3022 17.0024C32.9026 17.0026 32.5119 16.8843 32.1796 16.6625C31.8472 16.4407 31.5882 16.1252 31.4351 15.7561C31.282 15.387 31.2419 14.9808 31.3197 14.5889C31.3975 14.1969 31.5898 13.8369 31.8723 13.5543C32.1548 13.2717 32.5147 13.0791 32.9066 13.0011C33.2985 12.9231 33.7048 12.963 34.074 13.1159C34.4431 13.2688 34.7587 13.5277 34.9807 13.8599C35.2027 14.1921 35.3212 14.5827 35.3212 14.9823C35.3224 15.2477 35.2711 15.5106 35.1703 15.7561C35.0696 16.0016 34.9214 16.2248 34.7342 16.4129C34.547 16.6009 34.3245 16.7502 34.0795 16.8521C33.8345 16.954 33.5718 17.0065 33.3064 17.0067L33.3022 17.0024ZM42.8666 0.358185H5.71515C4.37154 0.358185 3.08295 0.891934 2.13287 1.84201C1.1828 2.79209 0.649048 4.08067 0.649048 5.42429L0.649048 42.5757C0.649048 43.9193 1.1828 45.2079 2.13287 46.158C3.08295 47.1081 4.37154 47.6418 5.71515 47.6418H42.8666C44.2102 47.6418 45.4988 47.1081 46.4488 46.158C47.3989 45.2079 47.9327 43.9193 47.9327 42.5757V5.42429C47.9327 4.08067 47.3989 2.79209 46.4488 1.84201C45.4988 0.891934 44.2102 0.358185 42.8666 0.358185ZM41.0597 30.9659C40.9235 33.671 40.3061 36.0679 38.3313 38.0373C36.3566 40.0068 33.9618 40.6369 31.2599 40.7656C28.4725 40.9229 20.1155 40.9229 17.3281 40.7656C14.623 40.6295 12.2346 40.011 10.2567 38.0373C8.27881 36.0636 7.65716 33.6657 7.52839 30.9659C7.37113 28.1774 7.37113 19.8194 7.52839 17.0341C7.66454 14.329 8.27459 11.9321 10.2567 9.96267C12.2388 7.99322 14.6336 7.37051 17.3281 7.24175C20.1155 7.08449 28.4725 7.08449 31.2599 7.24175C33.965 7.3779 36.3608 7.99639 38.3313 9.97006C40.3018 11.9437 40.9309 14.3417 41.0597 17.0468C41.2169 19.8247 41.2169 28.1753 41.0597 30.9659Z" fill="#F5A524"/>
</svg>
