<svg width="49" height="48" viewBox="0 0 49 48" fill="none" xmlns="http://www.w3.org/2000/svg">
<path d="M24.5745 9.94156C16.9015 9.94156 10.6639 16.1792 10.6533 23.8522C10.6533 26.4803 11.3921 29.045 12.7853 31.2509L13.1125 31.7786L11.7088 36.908L16.9754 35.5254L17.482 35.8315C19.614 37.098 22.0626 37.7735 24.564 37.7735H24.5745C32.237 37.7735 38.6435 31.5358 38.6435 23.8628C38.6435 20.1476 37.0393 16.6541 34.4112 14.0261C31.7726 11.3875 28.2897 9.94156 24.5745 9.94156ZM32.7542 29.826C32.4059 30.8076 30.7383 31.6941 29.9362 31.8102C28.6063 32.0108 27.572 31.9052 24.9228 30.7654C20.7328 28.95 17.9886 24.7282 17.7775 24.4538C17.5664 24.1794 16.0677 22.1846 16.0677 20.1265C16.0677 18.0684 17.1443 17.0552 17.5348 16.633C17.9147 16.2109 18.3686 16.1053 18.6535 16.1053C18.928 16.1053 19.2129 16.1053 19.4557 16.1159C19.709 16.1264 20.0573 16.0209 20.395 16.8336C20.7433 17.6674 21.5771 19.7255 21.6826 19.9366C21.7882 20.1476 21.8621 20.3904 21.7143 20.6648C20.9122 22.2691 20.0573 22.2057 20.49 22.9446C22.1048 25.7204 23.7196 26.6808 26.1788 27.9157C26.601 28.1268 26.8437 28.0951 27.0865 27.8101C27.3292 27.5357 28.1314 26.5858 28.4058 26.1742C28.6802 25.752 28.9652 25.8259 29.3451 25.9631C29.7251 26.1003 31.7832 27.1135 32.2054 27.3246C32.6275 27.5357 32.902 27.6413 33.0075 27.8101C33.1025 28.0107 33.1025 28.855 32.7542 29.826ZM43.1503 0.358185H5.99884C3.20193 0.358185 0.932739 2.62738 0.932739 5.42429V42.5757C0.932739 45.3726 3.20193 47.6418 5.99884 47.6418H43.1503C45.9472 47.6418 48.2164 45.3726 48.2164 42.5757V5.42429C48.2164 2.62738 45.9472 0.358185 43.1503 0.358185ZM24.564 40.5915C21.7565 40.5915 19.0018 39.8843 16.5638 38.5545L7.68754 40.887L10.0623 32.2113C8.59522 29.6782 7.82475 26.7969 7.82475 23.8417C7.8353 14.6172 15.3395 7.11299 24.564 7.11299C29.0391 7.11299 33.2397 8.85446 36.406 12.0208C39.5618 15.1871 41.4616 19.3877 41.4616 23.8628C41.4616 33.0873 33.7885 40.5915 24.564 40.5915Z" fill="#F5A524"/>
</svg>
